<svg id="Group_181" data-name="Group 181" xmlns="http://www.w3.org/2000/svg" width="112.16" height="76.809" viewBox="0 0 112.16 76.809">
  <path id="Path_105" data-name="Path 105" d="M107.276,87.2l18.487-7.38v12.9c0,4.6-12.028,8.323-26.861,8.323s-26.868-3.725-26.868-8.323V77.635l34.006,9.623a1.858,1.858,0,0,0,.523.074A1.915,1.915,0,0,0,107.276,87.2Zm-43.608.082a2.391,2.391,0,0,0-.807-1.5V83.44a1.927,1.927,0,0,0-.277-3.527v-6.9L62.7,73l43.863,12.414L157.442,65.1,97.508,52.935,45.965,68.261,61.3,72.6v7.311a1.929,1.929,0,0,0-.277,3.527v2.34a2.561,2.561,0,0,0-.806,1.5l-2.825,15.36a1.1,1.1,0,0,0,.3.832s-.429.78,4.246.78,4.247-.78,4.247-.78a1.1,1.1,0,0,0,.3-.832Z" transform="translate(-45.965 -52.935)" fill="#e5e2dd"/>
  <path id="Path_106" data-name="Path 106" d="M76.08,108.807a6.67,6.67,0,0,1-1.375,4.441,2.863,2.863,0,0,1-1.015.733,2.421,2.421,0,0,1-.929.184,3.08,3.08,0,0,1-1.178-.251A5.586,5.586,0,0,1,69,111.206a9.914,9.914,0,0,1-1.094-4.492,4.08,4.08,0,0,1,.839-2.732,1.69,1.69,0,0,1,.6-.435,1.4,1.4,0,0,1,.545-.109,1.815,1.815,0,0,1,.7.151c1.225.5,2.254,2.53,2.247,4.429A1.984,1.984,0,0,1,72,109.9a.808.808,0,0,1-.3.06,1.029,1.029,0,0,1-.389-.085,2.02,2.02,0,0,1-.921-.976,3.693,3.693,0,0,1-.407-1.682c0-.528.173-.941.44-1.053a.343.343,0,0,1,.14-.027.514.514,0,0,1,.2.041A1.749,1.749,0,0,1,71.5,107.7a.318.318,0,0,0,.2.29l.214.09a.281.281,0,0,0,.12.024.309.309,0,0,0,.175-.054.314.314,0,0,0,.139-.26A2.785,2.785,0,0,0,71,105.267a1.3,1.3,0,0,0-.487-.1,1.118,1.118,0,0,0-.435.088,1.921,1.921,0,0,0-.935,1.87,4.016,4.016,0,0,0,1.93,3.65,1.81,1.81,0,0,0,.687.143,1.554,1.554,0,0,0,.582-.114,1.744,1.744,0,0,0,.61-.437,3.354,3.354,0,0,0,.724-2.262c.006-2.381-1.242-4.764-2.849-5.427a2.625,2.625,0,0,0-.985-.2,2.18,2.18,0,0,0-.839.166,2.881,2.881,0,0,0-1.455,1.545L62.835,105.4c.032-4.1,1.509-7.251,3.87-8.228a4.054,4.054,0,0,1,1.55-.306,5.04,5.04,0,0,1,1.9.4,9,9,0,0,1,4.179,4.364A15.843,15.843,0,0,1,76.08,108.807Zm40.611-4.984-.12,11.646,1.171-1.458,1.25.711-1.015-11.083A4.3,4.3,0,0,1,116.69,103.823Zm-4.29-4.4a4.315,4.315,0,0,0,1.373,3.235c-13.182,3.4-25.728,8.2-38.87,11.695a3.862,3.862,0,0,0,.416-.391,7.531,7.531,0,0,0,1.6-5.061,16.986,16.986,0,0,0-1.875-7.719A9.95,9.95,0,0,0,70.4,96.363a6.177,6.177,0,0,0-1.63-.427c12.338-3.01,25.324-4.446,37.669-7.443l-.021.011c4.233,1.364,6.171,5.8,6.945,8.285A4.311,4.311,0,0,0,112.4,99.418Zm36-9.016a7.237,7.237,0,0,1-1.52,4.854,3.349,3.349,0,0,1-1.175.85,2.927,2.927,0,0,1-.377.125c-7.995,2.061-16.4,3.2-24.58,4.853a4.316,4.316,0,0,0-3.642-5.89c-2.029-6.413-5-8.2-5-8.2h0c8.813-2.537,16.563-5.665,26.759-9.128a4.6,4.6,0,0,1,3.21.3,9.637,9.637,0,0,1,4.488,4.667A16.674,16.674,0,0,1,148.4,90.4Zm-29.28,12.7L122,108.646l-1.145-.333-.407,1.367-2.176-6.145A4.6,4.6,0,0,0,119.118,103.1Zm-2.456-.173a3.43,3.43,0,1,1,3.492-3.366A3.432,3.432,0,0,1,116.662,102.928Z" transform="translate(-36.238 -38.661)" fill="#e5e2dd"/>
</svg>
