<svg xmlns="http://www.w3.org/2000/svg" width="83.076" height="74.058" viewBox="0 0 83.076 74.058">
  <g id="Group_13165" data-name="Group 13165" transform="translate(-767 -1961)">
    <g id="Group_188" data-name="Group 188" transform="translate(767 1961)">
      <g id="Group_183" data-name="Group 183">
        <circle id="Ellipse_22" data-name="Ellipse 22" cx="4.185" cy="4.185" r="4.185" transform="translate(3.551)" fill="#e5e2dd"/>
        <path id="Path_107" data-name="Path 107" d="M159.493,55.246h0a7.735,7.735,0,0,0-4.148-6.821.394.394,0,0,0-.42.039,5.223,5.223,0,0,1-6.331,0,.4.4,0,0,0-.421-.039,7.735,7.735,0,0,0-4.148,6.821h0v.034h15.471v-.034Z" transform="translate(-144.022 -40.124)" fill="#e5e2dd"/>
      </g>
      <g id="Group_184" data-name="Group 184" transform="translate(16.902)">
        <circle id="Ellipse_23" data-name="Ellipse 23" cx="4.185" cy="4.185" r="4.185" transform="translate(3.55)" fill="#e5e2dd"/>
        <path id="Path_108" data-name="Path 108" d="M172.494,55.246h0a7.737,7.737,0,0,0-4.148-6.821.4.4,0,0,0-.421.039,5.223,5.223,0,0,1-6.331,0,.4.4,0,0,0-.421-.039,7.737,7.737,0,0,0-4.148,6.821h0v.034h15.47v-.034Z" transform="translate(-157.024 -40.124)" fill="#e5e2dd"/>
      </g>
      <g id="Group_185" data-name="Group 185" transform="translate(33.803)">
        <circle id="Ellipse_24" data-name="Ellipse 24" cx="4.185" cy="4.185" r="4.185" transform="translate(3.551)" fill="#e5e2dd"/>
        <path id="Path_109" data-name="Path 109" d="M185.495,55.246h0a7.735,7.735,0,0,0-4.148-6.821.4.4,0,0,0-.421.039,5.223,5.223,0,0,1-6.331,0,.394.394,0,0,0-.42-.039,7.732,7.732,0,0,0-4.148,6.821h0v.034h15.47v-.034Z" transform="translate(-170.025 -40.124)" fill="#e5e2dd"/>
      </g>
      <g id="Group_186" data-name="Group 186" transform="translate(50.705)">
        <circle id="Ellipse_25" data-name="Ellipse 25" cx="4.185" cy="4.185" r="4.185" transform="translate(3.55)" fill="#e5e2dd"/>
        <path id="Path_110" data-name="Path 110" d="M198.5,55.246h0a7.736,7.736,0,0,0-4.149-6.821.394.394,0,0,0-.42.039,5.223,5.223,0,0,1-6.331,0,.4.4,0,0,0-.421-.039,7.735,7.735,0,0,0-4.148,6.821h0v.034H198.5v-.034Z" transform="translate(-183.027 -40.124)" fill="#e5e2dd"/>
      </g>
      <g id="Group_187" data-name="Group 187" transform="translate(67.606)">
        <circle id="Ellipse_26" data-name="Ellipse 26" cx="4.185" cy="4.185" r="4.185" transform="translate(3.55)" fill="#e5e2dd"/>
        <path id="Path_111" data-name="Path 111" d="M211.5,55.246h0a7.735,7.735,0,0,0-4.148-6.821.4.4,0,0,0-.421.039,5.223,5.223,0,0,1-6.331,0,.394.394,0,0,0-.42-.039,7.732,7.732,0,0,0-4.148,6.821h0v.034H211.5v-.034Z" transform="translate(-196.028 -40.124)" fill="#e5e2dd"/>
      </g>
    </g>
    <g id="Group_191" data-name="Group 191" transform="translate(792.354 2019.903)">
      <g id="Group_189" data-name="Group 189">
        <circle id="Ellipse_27" data-name="Ellipse 27" cx="4.185" cy="4.185" r="4.185" transform="translate(3.55)" fill="#e5e2dd"/>
        <path id="Path_112" data-name="Path 112" d="M178.995,100.557h0a7.732,7.732,0,0,0-4.148-6.821.394.394,0,0,0-.42.039,5.223,5.223,0,0,1-6.331,0,.4.4,0,0,0-.421-.039,7.735,7.735,0,0,0-4.148,6.821h0v.034h15.47v-.034Z" transform="translate(-163.525 -85.435)" fill="#e5e2dd"/>
      </g>
      <g id="Group_190" data-name="Group 190" transform="translate(16.901)">
        <circle id="Ellipse_28" data-name="Ellipse 28" cx="4.185" cy="4.185" r="4.185" transform="translate(3.55)" fill="#e5e2dd"/>
        <path id="Path_113" data-name="Path 113" d="M192,100.557h0a7.735,7.735,0,0,0-4.148-6.821.4.4,0,0,0-.421.039,5.223,5.223,0,0,1-6.331,0,.394.394,0,0,0-.42-.039,7.736,7.736,0,0,0-4.149,6.821h0v.034H192v-.034Z" transform="translate(-176.526 -85.435)" fill="#e5e2dd"/>
      </g>
    </g>
    <g id="Group_196" data-name="Group 196" transform="translate(775.451 1980.681)">
      <g id="Group_192" data-name="Group 192">
        <circle id="Ellipse_29" data-name="Ellipse 29" cx="4.185" cy="4.185" r="4.185" transform="translate(3.55)" fill="#e5e2dd"/>
        <path id="Path_114" data-name="Path 114" d="M165.993,70.386h0a7.732,7.732,0,0,0-4.148-6.821.391.391,0,0,0-.421.039,5.228,5.228,0,0,1-6.331,0,.389.389,0,0,0-.42-.039,7.729,7.729,0,0,0-4.148,6.821h0v.034h15.47v-.034Z" transform="translate(-150.523 -55.263)" fill="#e5e2dd"/>
      </g>
      <g id="Group_193" data-name="Group 193" transform="translate(16.902)">
        <circle id="Ellipse_30" data-name="Ellipse 30" cx="4.185" cy="4.185" r="4.185" transform="translate(3.55)" fill="#e5e2dd"/>
        <path id="Path_115" data-name="Path 115" d="M178.995,70.386h0a7.729,7.729,0,0,0-4.148-6.821.389.389,0,0,0-.42.039,5.228,5.228,0,0,1-6.331,0,.391.391,0,0,0-.421-.039,7.732,7.732,0,0,0-4.148,6.821h0v.034h15.47v-.034Z" transform="translate(-163.525 -55.263)" fill="#e5e2dd"/>
      </g>
      <g id="Group_194" data-name="Group 194" transform="translate(33.803)">
        <circle id="Ellipse_31" data-name="Ellipse 31" cx="4.185" cy="4.185" r="4.185" transform="translate(3.55)" fill="#e5e2dd"/>
        <path id="Path_116" data-name="Path 116" d="M192,70.386h0a7.732,7.732,0,0,0-4.148-6.821.391.391,0,0,0-.421.039,5.228,5.228,0,0,1-6.331,0,.389.389,0,0,0-.42-.039,7.733,7.733,0,0,0-4.149,6.821h0v.034H192v-.034Z" transform="translate(-176.526 -55.263)" fill="#e5e2dd"/>
      </g>
      <g id="Group_195" data-name="Group 195" transform="translate(50.705)">
        <circle id="Ellipse_32" data-name="Ellipse 32" cx="4.185" cy="4.185" r="4.185" transform="translate(3.549)" fill="#e5e2dd"/>
        <path id="Path_117" data-name="Path 117" d="M205,70.386h0a7.732,7.732,0,0,0-4.148-6.821.389.389,0,0,0-.42.039,5.228,5.228,0,0,1-6.331,0,.391.391,0,0,0-.421-.039,7.732,7.732,0,0,0-4.148,6.821h0v.034H205v-.034Z" transform="translate(-189.528 -55.263)" fill="#e5e2dd"/>
      </g>
    </g>
    <g id="Group_200" data-name="Group 200" transform="translate(783.902 2000.361)">
      <g id="Group_197" data-name="Group 197">
        <circle id="Ellipse_33" data-name="Ellipse 33" cx="4.185" cy="4.185" r="4.185" transform="translate(3.55)" fill="#e5e2dd"/>
        <path id="Path_118" data-name="Path 118" d="M172.494,85.525h0a7.736,7.736,0,0,0-4.148-6.821.391.391,0,0,0-.421.039,5.228,5.228,0,0,1-6.331,0,.391.391,0,0,0-.421-.039,7.736,7.736,0,0,0-4.148,6.821h0v.034h15.47v-.034Z" transform="translate(-157.024 -70.403)" fill="#e5e2dd"/>
      </g>
      <g id="Group_198" data-name="Group 198" transform="translate(16.901)">
        <circle id="Ellipse_34" data-name="Ellipse 34" cx="4.185" cy="4.185" r="4.185" transform="translate(3.551)" fill="#e5e2dd"/>
        <path id="Path_119" data-name="Path 119" d="M185.495,85.525h0a7.733,7.733,0,0,0-4.148-6.821.391.391,0,0,0-.421.039,5.228,5.228,0,0,1-6.331,0,.389.389,0,0,0-.42-.039,7.731,7.731,0,0,0-4.148,6.821h0v.034h15.47v-.034Z" transform="translate(-170.025 -70.403)" fill="#e5e2dd"/>
      </g>
      <g id="Group_199" data-name="Group 199" transform="translate(33.803)">
        <circle id="Ellipse_35" data-name="Ellipse 35" cx="4.185" cy="4.185" r="4.185" transform="translate(3.55)" fill="#e5e2dd"/>
        <path id="Path_120" data-name="Path 120" d="M198.5,85.525h0a7.735,7.735,0,0,0-4.149-6.821.389.389,0,0,0-.42.039,5.228,5.228,0,0,1-6.331,0,.391.391,0,0,0-.421-.039,7.733,7.733,0,0,0-4.148,6.821h0v.034H198.5v-.034Z" transform="translate(-183.027 -70.403)" fill="#e5e2dd"/>
      </g>
    </g>
  </g>
</svg>
