<svg xmlns="http://www.w3.org/2000/svg" width="21.388" height="34.529" viewBox="0 0 21.388 34.529">
  <path id="Path_20" data-name="Path 20" d="M170.711,346.019a.483.483,0,0,0-.311-.165c-.143,0-.236.139-.237.4l-.019,28.764c0,.255.089.391.223.391a.471.471,0,0,0,.309-.174l5.813-5.953a.548.548,0,0,1,.388-.185.492.492,0,0,1,.442.341l4.464,10.482a.765.765,0,0,0,.7.463.748.748,0,0,0,.3-.061l3.639-1.549a.763.763,0,0,0,.4-1l-4.478-10.516a.47.47,0,0,1,.175-.641.464.464,0,0,1,.289-.059l8.334-.037c.419,0,.516-.242.214-.533Z" transform="translate(-170.144 -345.854)" fill="#666"/>
</svg>
