<?xml version="1.0" encoding="utf-8"?>
<!-- Generator: Adobe Illustrator 25.0.1, SVG Export Plug-In . SVG Version: 6.00 Build 0)  -->
<svg version="1.1" id="Layer_1" xmlns="http://www.w3.org/2000/svg" xmlns:xlink="http://www.w3.org/1999/xlink" x="0px" y="0px"
	 viewBox="0 0 221 128" style="enable-background:new 0 0 221 128;" xml:space="preserve">
<style type="text/css">
	.st0{fill:#FFFFFF;}
	.st1{fill:#660000;}
</style>
<g>
	<path class="st0" d="M210.94,61.85c-4.91-4.75-9.25-7.85-11.43-9.53c-2.43-1.87-21.8-14.63-21.8-14.63
		c-6.37-12.38-8.78-15.31-23.96-22.25C98.83-9.7,90.15,27.23,65.85,20.2c0.93,2.78,7.84,8.06,7.84,8.06
		C62.15,39.59,43.2,37.28,43.2,37.28s3.06,5.59,7.99,8.69c-9.34-0.57-21.14-4.6-21.14-4.6S37.4,53.89,45,58.07
		C33.85,71.24,21.21,73.33,6.96,72.71c16.47,11.96,38.93,13.21,38.93,13.21c-0.46,20.61,23.94,33.8,23.94,33.8
		s-4.33-11.84-3.57-17.98c9.82,20.13,30.19,23.27,30.19,23.27c-2.23-4.49-2.86-5.83-4.11-9.82c4.31,3.66,12.79,7.17,12.79,7.17
		c-1.6-4.79-5.04-11.4-5.92-23.12c2.85,14.65,24.76,21.86,24.76,21.86c-4.31-6.95-5.1-8.01-6.66-11.28l3.2,2.29
		c0,0-4.05-13.79-2.66-21.06c7.15-6.2,9.04-10.29,14.64-12.44c14.19-5.46,21.59,3.9,25.14,7.09c7.13,6.41,13.9,6.95,21.29,7.11
		c1.86,1.17,3.57,2.29,5.27,1.42c0.81-0.41,1.39-1.15,1.59-2.04c2.17-9.3-1.84-14.12-6.31-15.52c-5.97-1.88-9.19-5.13-12.31-9.8
		c7.46,3.63,21.09,11.16,29.48,10.75c5.52-0.27,12.8-4.48,14.96-7.4C213.7,67.38,213.39,64.22,210.94,61.85z"/>
	<path class="st1" d="M151.96,34.13c2.53-2.01,8.15-2.52,8.15-2.52s-0.26-1.22-1.41-2.95c4.36,1.24,8.49,5.97,10.78,10.93
		c-0.95,0-4.28-2.32-8.6-1.74C159.68,36.37,154.52,33.69,151.96,34.13z M204.96,72.52c0,0-3.86,2.42-8.43,2.64
		c-10.94,0.53-27.73-13.75-37.79-13.21c7.03,3.35,7.83,13.42,19.94,17.23c6.6,2.07,4.94,10.64,4.53,12.41
		c-0.06,0.26-0.34,0.4-0.58,0.3c-1.34-0.56-2.6-1.45-3.71-2.43c-0.26,0.58-0.85,1.01-1.58,0.99c-8.06-0.23-14.75-2.31-22.91-10.64
		c-3.43-3.5-13.13-7.41-22.9-3.66c-6.54,2.51-8.35,6.96-16.15,13.53c-1.27,7.5,0.87,16.15,0.87,16.15s-2.1-1.51-4.61-4.14
		c1.47,6.96,5.54,13.48,5.54,13.48c-11.49-5.15-15.42-13.16-16.16-20.66c11.55-7,14.63-13.29,22.6-18.25
		c-3.53-1.75-10.7-0.17-10.7-0.17c14.38-11.02,33.37-7.73,44.7,1.13c4.92,3.85,7.54,9.27,16.54,10.33
		c-6.89-2.18-6.26-8.85-19.55-15.41c-10.1-4.99-13.94-9.56-12.92-13.26c-1.27-0.08-2.27-0.03-2.27-0.03s2.77-4.4,10.25-4.6
		c2.63-0.07,5.74,0.21,8.57,1.17c13.68,4.61,34.2,19.43,41.8,12.92c-2.11-4.39,0.16-8.5,0.16-8.5c-0.26-1.01-2.31-3.78-4.73-7.36
		c4.79,3.07,7.61,5.21,13.75,11.15C212.55,66.81,208.13,71.14,204.96,72.52z M148.3,59.86l0.92-2.39c0.04-0.11-0.04-0.24-0.17-0.23
		l-2.57,0.12c-0.08,0-0.15,0.06-0.16,0.14c-0.07,0.41-0.13,1.66,1.75,2.46C148.16,60,148.27,59.95,148.3,59.86z M153.9,64.72
		l1.48-2.73c0.06-0.11,0.04-0.24-0.04-0.33l-1.05-1.13l-0.5-1.92c-0.04-0.17-0.22-0.26-0.38-0.19l-4.49,1.78
		c-0.23,0.09-0.36,0.35-0.27,0.58c0.29,0.76,1.32,0.89,2.09,1.56c0.92,0.79,0.79,2.19,2.63,2.61C153.58,65,153.8,64.9,153.9,64.72z
		 M157.63,68.37l-0.15-3.84c0-0.13-0.13-0.21-0.25-0.17l-3.02,1.03c-0.09,0.03-0.14,0.11-0.13,0.2c0.11,0.69,1.39,2.17,3.29,2.96
		C157.49,68.6,157.63,68.5,157.63,68.37z M174.67,83.49c0.04,1.37,1.05,1.99,1.8,2.26c0.25,0.09,0.52,0.1,0.77,0.05
		c-0.01,0.35,0.06,0.71,0.36,0.9c0.62,0.41,1.65,0.24,2.61-0.6c0.07-0.06,0.03-0.18-0.07-0.18c-0.87-0.04-1.44-0.08-2.12-0.57
		c1.14-1.15,1.19-2.88,1.15-3.64c-0.01-0.15-0.18-0.23-0.3-0.13c-0.51,0.41-1.79,1.26-4.05,1.72
		C174.74,83.32,174.67,83.4,174.67,83.49z M158.81,69.77c0.39,0.6,1.44,1.59,2.69,2.24c0.2,0.1,0.43-0.06,0.41-0.28l-0.23-2.46
		c-0.02-0.16-0.16-0.28-0.32-0.25l-2.35,0.33C158.8,69.36,158.69,69.6,158.81,69.77z M88.07,106.89c0.47,7.64,3.69,14.11,3.69,14.11
		c-14.57-4.89-22.37-17.51-26.3-26.99c-2.1,5.35-2.84,11.61-0.64,18.61C36.22,90.96,54.3,63.54,54.3,63.54
		C48.21,68.58,45.33,75.06,44,82.3c-7.38-0.45-15.9-2.5-25.59-7.08c0,0,17.36-0.2,30.48-17.82c-4.51-2.57-8.73-6.26-12.35-11.4
		c27.83,8.07,41.18-4.61,41.18-4.61s3.28-8.72,14.09-14.65c-12.69,3.35-13.99,15.98-35.45,19.2c-3.21-1.58-5.91-3.5-7.69-5.84
		c15.19,0.5,21.56-6.75,29.85-11.87c-1.98-0.99-3.9-2.39-5.69-4.33c13.95,2.04,20.21-14.93,42.32-10.03
		c-1.44-1.25-3.4-2.13-5.59-2.74c17.5-4.05,38.2,4.73,45.94,8.11c13.93,6.09,14.97,14.34,20.08,20.48
		c-9.14-3.06-3.69-12.09-28.08-19.1c1.57,1.16,2.6,2.52,3.28,3.79c-4.42,0.78-9.03,3.67-10.82,7.77c-6.07-1.38-11.48,0.5-12.95,1.99
		c3.74-0.34,7.08,0.94,9.37,2.19c-26.89-0.6-28.06,17.82-6.08,26.85c-8.6-1.19-18.64-0.93-26.36,2.87
		c-0.74,3.55-0.31,7.26,1.19,9.79c-2.11-0.87-3.72-2.04-4.95-3.32c-3.95,11.97-6.04,27.75,0.2,44.61
		C95.12,114.6,91.06,111.08,88.07,106.89z M90.15,37.39c0,0,7.86-8.32,18.26-9.15c-16.05,13.4-14.06,38.93-14.06,38.93
		c0.3-10.51,7.99-33.58,26.49-43.75c0,0-2.96-0.97-7.29-0.25c3.24-2.41,11.07-3.9,15.37-2.83c-16.75-8.31-30.56,3.17-30.56,3.17
		s6.06-2.79,11.97-1.73C110.34,21.79,97.66,22.84,90.15,37.39z M92.36,41.64c-13.84,9.83-20.94,32.97-10.26,59.2
		C74.62,64.02,92.36,41.64,92.36,41.64z M123.18,112.25v-0.58h2.99v0.58h-1.15v2.92h-0.7v-2.92H123.18z M127.77,111.66l0.9,2.51
		l0.9-2.51h1v3.51h-0.64v-2.83l-0.97,2.83h-0.56l-0.98-2.83v2.83h-0.64v-3.51H127.77z"/>
</g>
</svg>
