<svg id="Group_205" data-name="Group 205" xmlns="http://www.w3.org/2000/svg" width="127.013" height="71.277" viewBox="0 0 127.013 71.277">
  <g id="Group_202" data-name="Group 202">
    <path id="Path_121" data-name="Path 121" d="M352.776,51.7a30.225,30.225,0,0,0-6.164-3.036,19.555,19.555,0,0,0-6.7-1.429V67.781l1.878,1.161a91.351,91.351,0,0,1,9.2,5.806c2.859,2.232,4.643,6.253,4.643,10.54a15.789,15.789,0,0,1-5.359,12.146c-2.768,2.412-4.912,3.305-10.362,4.11v5.269h-3.929l-.089-5c-5.27-.267-7.5-.714-10.54-1.964-2.234-.893-3.75-1.786-7.592-4.377l3.751-5.806a45.047,45.047,0,0,0,6.7,3.931c2.5,1.072,4.019,1.339,7.682,1.607V73.766l-3.662-2.144c-9.378-5.539-12.594-9.2-12.594-15.274,0-8.485,5.895-14.112,16.256-15.452l.089-5.359h3.929v5.269c4.378.179,5.986.357,9.111,1.339a31.987,31.987,0,0,1,7.146,3.484Zm-16.881-4.375c-5.895,1.072-9.022,4.019-9.022,8.485a7.552,7.552,0,0,0,3.662,6.431l5.36,3.662ZM347.6,81.8a43.33,43.33,0,0,0-5.449-4.823,11.087,11.087,0,0,0-2.234-1.339V95.024c5.183-.983,8.486-4.466,8.486-8.844A8.6,8.6,0,0,0,347.6,81.8Z" transform="translate(-317.762 -35.537)" fill="#e5e2dd"/>
  </g>
  <g id="Group_203" data-name="Group 203" transform="translate(44.304)">
    <path id="Path_122" data-name="Path 122" d="M390.482,51.7a30.19,30.19,0,0,0-6.162-3.036,19.555,19.555,0,0,0-6.7-1.429V67.781l1.876,1.161a91.566,91.566,0,0,1,9.2,5.806c2.857,2.232,4.643,6.253,4.643,10.54a15.793,15.793,0,0,1-5.359,12.146c-2.768,2.412-4.912,3.305-10.362,4.11v5.269h-3.93l-.088-5c-5.271-.267-7.5-.714-10.541-1.964-2.232-.893-3.75-1.786-7.591-4.377l3.75-5.806a45.106,45.106,0,0,0,6.7,3.931c2.5,1.072,4.021,1.339,7.683,1.607V73.766l-3.662-2.144c-9.379-5.539-12.6-9.2-12.6-15.274,0-8.485,5.9-14.112,16.257-15.452l.088-5.359h3.93v5.269c4.378.179,5.985.357,9.111,1.339a31.982,31.982,0,0,1,7.145,3.484ZM373.6,47.327c-5.9,1.072-9.021,4.019-9.021,8.485a7.552,7.552,0,0,0,3.66,6.431l5.361,3.662ZM385.3,81.8a43.132,43.132,0,0,0-5.449-4.823,11.083,11.083,0,0,0-2.232-1.339V95.024c5.181-.983,8.486-4.466,8.486-8.844A8.588,8.588,0,0,0,385.3,81.8Z" transform="translate(-355.47 -35.537)" fill="#e5e2dd"/>
  </g>
  <g id="Group_204" data-name="Group 204" transform="translate(88.605)">
    <path id="Path_123" data-name="Path 123" d="M428.188,51.7a30.19,30.19,0,0,0-6.162-3.036,19.555,19.555,0,0,0-6.7-1.429V67.781l1.876,1.161a91.562,91.562,0,0,1,9.2,5.806c2.857,2.232,4.643,6.253,4.643,10.54a15.793,15.793,0,0,1-5.359,12.146c-2.768,2.412-4.912,3.305-10.362,4.11v5.269H411.4l-.088-5c-5.271-.267-7.5-.714-10.54-1.964-2.234-.893-3.751-1.786-7.592-4.377l3.75-5.806a45.106,45.106,0,0,0,6.7,3.931c2.5,1.072,4.021,1.339,7.683,1.607V73.766l-3.662-2.144c-9.379-5.539-12.6-9.2-12.6-15.274,0-8.485,5.9-14.112,16.257-15.452l.088-5.359h3.93v5.269c4.378.179,5.985.357,9.111,1.339a31.986,31.986,0,0,1,7.146,3.484Zm-16.88-4.375c-5.9,1.072-9.021,4.019-9.021,8.485a7.552,7.552,0,0,0,3.66,6.431l5.361,3.662Zm11.7,34.477a43.175,43.175,0,0,0-5.448-4.823,11.088,11.088,0,0,0-2.234-1.339V95.024c5.181-.983,8.486-4.466,8.486-8.844A8.588,8.588,0,0,0,423.008,81.8Z" transform="translate(-393.176 -35.537)" fill="#e5e2dd"/>
  </g>
</svg>
