<svg xmlns="http://www.w3.org/2000/svg" width="91.021" height="71.275" viewBox="0 0 91.021 71.275">
  <g id="Group_13164" data-name="Group 13164" transform="translate(-460 -2210)">
    <path id="tree" d="M270.435,104.765l3.9.885,22.65,5.14L283.708,90.346l-.015-.023,9.5,2.326L281.812,75.124l-2.749-4.234,6.541,1.6-7.585-11.682-7.585-11.682L262.85,60.809l-7.585,11.682,6.541-1.6-2.749,4.234L247.68,92.648l9.5-2.326-.015.023L243.887,110.79l22.65-5.14Z" transform="translate(235.076 2160.873)" fill="#e5e2dd"/>
    <path id="trunk" d="M258.851,88.473v12.173h7.8V88.473l-3.9-.885Z" transform="translate(242.762 2180.629)" fill="#e5e2dd"/>
    <path id="tree-2" data-name="tree" d="M250.271,89.765l.336.077a3.5,3.5,0,0,1,.565-1.945l7.421-11.431L254.917,70.8l-1.707-2.629,4.063.994-4.71-7.256-4.712-7.256-4.712,7.256-4.71,7.256,4.063-.994L240.783,70.8,233.716,81.69l5.9-1.446-.009.015-8.246,12.7,14.069-3.192,2.422-.549Z" transform="translate(228.641 2163.713)" fill="#e5e2dd"/>
    <path id="trunk-2" data-name="trunk" d="M240.654,79.1v7.561H245.5V79.1l-2.421-.55Z" transform="translate(233.416 2175.984)" fill="#e5e2dd"/>
    <path id="tree-3" data-name="tree" d="M292.487,80.259l-.008-.015,5.9,1.446L291.31,70.8,289.6,68.174l4.064.994-4.712-7.256-4.71-7.256-4.712,7.256-4.712,7.256,4.064-.994L277.177,70.8,273.5,76.466,280.922,87.9a3.5,3.5,0,0,1,.565,1.945l.336-.077,2.422-.549,2.42.549,14.069,3.192Z" transform="translate(250.287 2163.713)" fill="#e5e2dd"/>
    <path id="trunk-3" data-name="trunk" d="M279,79.1v7.561h4.842V79.1l-2.421-.55Z" transform="translate(253.111 2175.984)" fill="#e5e2dd"/>
  </g>
</svg>
