<?xml version="1.0" encoding="utf-8"?>
<!-- Generator: Adobe Illustrator 25.0.1, SVG Export Plug-In . SVG Version: 6.00 Build 0)  -->
<svg version="1.1" id="Layer_1" xmlns="http://www.w3.org/2000/svg" xmlns:xlink="http://www.w3.org/1999/xlink" x="0px" y="0px"
	 viewBox="0 0 21.89 35.03" style="enable-background:new 0 0 21.89 35.03;" xml:space="preserve">
<style type="text/css">
	.st0{fill:none;stroke:#666666;stroke-miterlimit:10;}
</style>
<path id="Path_20" class="st0" d="M0.82,0.42C0.74,0.32,0.63,0.26,0.51,0.25c-0.14,0-0.24,0.14-0.24,0.4L0.25,29.41
	c0,0.26,0.09,0.39,0.22,0.39c0.12-0.02,0.23-0.08,0.31-0.17l5.81-5.95c0.1-0.11,0.24-0.18,0.39-0.18c0.2,0.01,0.38,0.15,0.44,0.34
	l4.46,10.48c0.12,0.28,0.4,0.46,0.7,0.46c0.1,0,0.21-0.02,0.3-0.06l3.64-1.55c0.39-0.17,0.56-0.61,0.4-1l-4.48-10.52
	c-0.13-0.23-0.05-0.51,0.18-0.64c0.09-0.05,0.19-0.07,0.29-0.06l8.33-0.04c0.42,0,0.52-0.24,0.21-0.53L0.82,0.42z"/>
</svg>
